<svg width="20" height="20" viewBox="0 0 20 20" fill="none" xmlns="http://www.w3.org/2000/svg">
<path d="M15.2043 6.66665C15.8633 7.61151 16.2498 8.76061 16.2498 9.99998C16.2498 11.2394 15.8633 12.3885 15.2043 13.3333M10.1119 3.63805L7.47386 6.27612C7.32973 6.42025 7.25767 6.49231 7.17357 6.54385C7.09901 6.58954 7.01772 6.62321 6.93269 6.64362C6.83679 6.66665 6.73487 6.66665 6.53105 6.66665H5.08333C4.61662 6.66665 4.38327 6.66665 4.20501 6.75747C4.04821 6.83737 3.92072 6.96485 3.84083 7.12165C3.75 7.29991 3.75 7.53327 3.75 7.99998V12C3.75 12.4667 3.75 12.7 3.84083 12.8783C3.92072 13.0351 4.04821 13.1626 4.20501 13.2425C4.38327 13.3333 4.61662 13.3333 5.08333 13.3333H6.53105C6.73487 13.3333 6.83679 13.3333 6.93269 13.3563C7.01772 13.3768 7.09901 13.4104 7.17357 13.4561C7.25767 13.5076 7.32973 13.5797 7.47386 13.7238L10.1119 16.3619C10.4689 16.7189 10.6474 16.8974 10.8006 16.9094C10.9336 16.9199 11.0635 16.8661 11.1502 16.7647C11.25 16.6478 11.25 16.3954 11.25 15.8905V4.10946C11.25 3.60461 11.25 3.35219 11.1502 3.2353C11.0635 3.13388 10.9336 3.08006 10.8006 3.09052C10.6474 3.10258 10.4689 3.28107 10.1119 3.63805Z" stroke="white" stroke-width="1.66667" stroke-linecap="round" stroke-linejoin="round"/>
</svg>
