<svg width="20" height="20" viewBox="0 0 20 20" fill="none" xmlns="http://www.w3.org/2000/svg">
<g clip-path="url(#clip0_37_2926)">
<path d="M4.16675 10C4.16675 6.77836 6.77842 4.16669 10.0001 4.16669M13.75 6.25002L10 10M18.3334 10C18.3334 14.6024 14.6025 18.3334 10.0001 18.3334C5.39771 18.3334 1.66675 14.6024 1.66675 10C1.66675 5.39765 5.39771 1.66669 10.0001 1.66669C14.6025 1.66669 18.3334 5.39765 18.3334 10ZM10.8334 10C10.8334 10.4603 10.4603 10.8334 10.0001 10.8334C9.53984 10.8334 9.16675 10.4603 9.16675 10C9.16675 9.53978 9.53984 9.16669 10.0001 9.16669C10.4603 9.16669 10.8334 9.53978 10.8334 10Z" stroke="white" stroke-width="1.66667" stroke-linecap="round" stroke-linejoin="round"/>
</g>
<defs>
<clipPath id="clip0_37_2926">
<rect width="20" height="20" fill="white"/>
</clipPath>
</defs>
</svg>
