<svg width="161" height="8" viewBox="0 0 161 8" fill="none" xmlns="http://www.w3.org/2000/svg">
<path d="M160.354 4.03553C160.549 3.84027 160.549 3.52369 160.354 3.32842L157.172 0.146442C156.976 -0.0488198 156.66 -0.0488198 156.464 0.146442C156.269 0.341705 156.269 0.658287 156.464 0.853549L159.293 3.68198L156.464 6.5104C156.269 6.70567 156.269 7.02225 156.464 7.21751C156.66 7.41277 156.976 7.41277 157.172 7.21751L160.354 4.03553ZM0 3.68198V4.18198H3.07692V3.68198V3.18198H0V3.68198ZM9.23077 3.68198V4.18198H15.3846V3.68198V3.18198H9.23077V3.68198ZM21.5385 3.68198V4.18198H27.6923V3.68198V3.18198H21.5385V3.68198ZM33.8462 3.68198V4.18198H40V3.68198V3.18198H33.8462V3.68198ZM46.1538 3.68198V4.18198H52.3077V3.68198V3.18198H46.1538V3.68198ZM58.4615 3.68198V4.18198H64.6154V3.68198V3.18198H58.4615V3.68198ZM70.7692 3.68198V4.18198H76.9231V3.68198V3.18198H70.7692V3.68198ZM83.0769 3.68198V4.18198H89.2308V3.68198V3.18198H83.0769V3.68198ZM95.3846 3.68198V4.18198H101.538V3.68198V3.18198H95.3846V3.68198ZM107.692 3.68198V4.18198H113.846V3.68198V3.18198H107.692V3.68198ZM120 3.68198V4.18198H126.154V3.68198V3.18198H120V3.68198ZM132.308 3.68198V4.18198H138.462V3.68198V3.18198H132.308V3.68198ZM144.615 3.68198V4.18198H150.769V3.68198V3.18198H144.615V3.68198ZM156.923 3.68198V4.18198H160V3.68198V3.18198H156.923V3.68198Z" fill="#DB153D"/>
</svg>
