<svg width="22" height="22" viewBox="0 0 22 22" fill="none" xmlns="http://www.w3.org/2000/svg">
<path d="M10.3595 19.8136C10.5625 19.932 10.6639 19.9912 10.8071 20.0219C10.9183 20.0458 11.0804 20.0458 11.1916 20.0219C11.3348 19.9912 11.4362 19.932 11.6392 19.8136C13.4249 18.7718 18.3327 15.4994 18.3327 11V7.51665C18.3327 6.53224 18.3327 6.04004 18.1809 5.69065C18.0267 5.33553 17.873 5.14662 17.5568 4.92331C17.2456 4.7036 16.6356 4.57674 15.4156 4.323C14.0709 4.04334 13.0383 3.53835 12.0942 2.80802C11.6415 2.45781 11.4151 2.2827 11.238 2.23494C11.0511 2.18454 10.9476 2.18454 10.7607 2.23494C10.5836 2.2827 10.3572 2.45781 9.9045 2.80802C8.96043 3.53835 7.92778 4.04334 6.58312 4.323C5.36311 4.57674 4.7531 4.7036 4.44192 4.92331C4.12565 5.14662 3.97199 5.33553 3.81776 5.69065C3.66602 6.04004 3.66602 6.53224 3.66602 7.51665V11C3.66602 15.4994 8.57381 18.7718 10.3595 19.8136Z" stroke="white" stroke-width="1.99636" stroke-linecap="round" stroke-linejoin="round"/>
</svg>
