<svg width="22" height="22" viewBox="0 0 22 22" fill="none" xmlns="http://www.w3.org/2000/svg">
<path d="M7.33399 7.33335V6.41669M7.33399 11.4584V10.5417M7.33399 15.5834V14.6667M6.23399 18.3334H15.7673C17.3075 18.3334 18.0775 18.3334 18.6658 18.0336C19.1832 17.77 19.6039 17.3493 19.8676 16.8318C20.1673 16.2436 20.1673 15.4735 20.1673 13.9334V8.06669C20.1673 6.52654 20.1673 5.75647 19.8676 5.16821C19.6039 4.65077 19.1832 4.23007 18.6658 3.96642C18.0775 3.66669 17.3075 3.66669 15.7673 3.66669H6.23399C4.69384 3.66669 3.92377 3.66669 3.33551 3.96642C2.81806 4.23007 2.39737 4.65077 2.13372 5.16821C1.83398 5.75647 1.83398 6.52654 1.83398 8.06669V13.9334C1.83398 15.4735 1.83398 16.2436 2.13372 16.8318C2.39737 17.3493 2.81806 17.77 3.33551 18.0336C3.92377 18.3334 4.69384 18.3334 6.23399 18.3334Z" stroke="white" stroke-width="1.83" stroke-linecap="round" stroke-linejoin="round"/>
</svg>
