<svg viewBox="0 0 42 56" fill="none" xmlns="http://www.w3.org/2000/svg">
  <path d="M38.1599 3.01144V35.5043H38.1896C38.1896 45.307 30.2289 53.2862 20.4486 53.2862C10.6683 53.2862 2.72108 45.3206 2.70758 35.5179H11.5106C11.5106 40.4557 15.522 44.4629 20.4351 44.4629C25.3481 44.4629 29.3595 40.4421 29.3595 35.5179V3.01144H38.1599ZM38.1599 0.30304H29.3568C27.8641 0.30304 26.6519 1.51519 26.6519 3.01416V35.5233C26.6519 38.9594 23.8607 41.7572 20.4324 41.7572C17.004 41.7572 14.2127 38.9594 14.2127 35.5233C14.2127 34.0271 13.0034 32.8122 11.5079 32.8122H2.70488C1.98681 32.8122 1.29845 33.099 0.790948 33.6076C0.283444 34.1162 0 34.8062 0 35.526C0.0161969 46.8141 9.18903 56 20.4458 56C31.7188 56 40.8917 46.8059 40.8917 35.507C40.8917 35.3689 40.8808 35.2338 40.8621 35.1011V3.01144C40.8648 1.51519 39.6526 0.30304 38.1599 0.30304Z" fill="white"/>
  <path d="M11.5268 20.236C11.5268 22.6765 9.54265 24.649 7.11043 24.649C4.67818 24.649 2.70757 22.6765 2.70757 20.236C2.70757 17.7954 4.67549 15.823 7.11043 15.823C9.54534 15.823 11.5268 17.7981 11.5268 20.236Z" fill="#FF4C4C"/>
  <path d="M7.11034 13.1146C3.1907 13.1146 0.00531006 16.3073 0.00531006 20.236C0.00531006 24.1647 3.1907 27.3573 7.11034 27.3573C11.03 27.3573 14.2316 24.1647 14.2316 20.236C14.2316 16.3073 11.0327 13.1146 7.11034 13.1146ZM7.11034 24.649C4.6754 24.649 2.70749 22.6765 2.70749 20.236C2.70749 17.7954 4.6754 15.823 7.11034 15.823C9.54525 15.823 11.5267 17.7954 11.5267 20.236C11.5267 22.6765 9.54525 24.649 7.11034 24.649Z" fill="white"/>
</svg>
